<?xml version='1.0' encoding='utf-8'?>
<svg xmlns="http://www.w3.org/2000/svg" width="1009" height="1009" viewBox="0 0 1009 1009">
  <path fill="#25262B" transform="scale(0.984961 0.984961)" d="M0 0L1024 0L1024 514.469L1024 542.009L1024 549.932L1024 1024L0 1024L0 116.478L0 60.0187L0 30.0292L0 0Z" />
  <path fill="#25262B" transform="scale(0.984961 0.984961)" d="M0 30.0292C48.2952 30.0422 94.0067 40.5552 137.715 61.005C151.077 67.2569 163.388 73.3272 175.21 82.3731C171.335 71.1427 162.825 62.0369 152.673 56.1027C173.103 60.0977 184.469 69.139 193.938 87.8249C190.674 60.8065 177.182 41.503 152.201 29.9805C184.837 30.6502 205.699 45.9749 211.651 78.4589C224.057 53.4237 243.116 39.1172 271.407 37.4472C247.817 46.9184 227.864 66.0477 221.741 91.3058C242.412 71.1533 265.422 59.2143 294.885 59.9476C314.51 60.436 332.816 63.3454 347.885 76.3815C311.698 63.919 248.617 74.9711 230.469 112.603C246.036 97.0547 262.647 87.7249 284.858 94.5835C281.91 95.0356 278.765 95.498 275.877 96.2159C260.874 99.9458 244.657 112.025 239.779 127.194C262.949 138.841 294.908 134.03 318.247 150.416C345.498 169.55 342.92 196.922 376.191 212.729C406.804 227.274 434.881 218.329 463.696 235.593C478.348 244.372 486.16 255.007 497.308 267.417C508.19 279.531 518.615 288.193 533.464 295.149C563.456 309.2 596.65 308.365 629.271 310.157C717.278 314.994 792.695 337.461 838.115 418.783C847.517 371.077 844.689 316.342 823.617 271.969C849.992 306.094 862.082 341.852 863.641 384.921C864.054 396.342 864.047 408.369 862.614 419.729L862.315 421.958C868.772 409.712 873.746 393.525 877.082 380.073C888.919 332.34 890.591 277.048 875.838 229.691L875.454 228.49C904.87 275.762 903.523 348.634 891.367 401.282C886.033 424.384 879.89 442.798 870.205 464.359C871.804 465.453 873.114 466.407 874.844 467.293C882.349 452.225 889.311 438.861 899.221 425.221C922.407 393.306 953.152 373.104 991.976 364.981C985.178 367.863 978.978 370.396 972.515 374.116C937.174 394.461 905.795 433.836 891.721 472.124C912.9 443.358 940.612 432.816 975.311 429.825C949.881 439.351 924.247 457.4 910.52 481.388C935.31 466.597 955.698 461.74 984.248 469.431C960.85 468.543 936.871 481.266 921.534 498.5C932.075 502.649 944.052 505.569 955.038 508.349C977.851 514.121 1000.61 514.592 1024 514.469L1024 542.009L1024 549.932C989.268 553.657 964.743 551.647 930.816 545.876C871.954 536.383 813.701 506.83 774.221 461.61C744.386 427.437 721.774 393.962 678.774 374.144C649.089 360.463 620.7 353.398 588.009 349.399C565.663 346.665 542.64 343.972 520.843 338.241C497.233 332.052 478.377 322.499 459.876 306.508C451.912 299.457 444.495 291.673 435.012 286.536C410.002 272.988 380.714 273.536 355.1 260.523C338.321 251.999 324.043 242.405 310.549 229.222C300.577 219.482 291.296 209.171 279.978 201.01C260.982 187.837 237.904 186.432 216.954 176.307C196.844 166.588 179.53 154.996 160.156 144.405C111.117 117.597 55.3024 107.356 0 116.478L0 60.0187L0 30.0292Z" />
  <path fill="#E6E7E2" transform="scale(0.984961 0.984961)" d="M0 60.0187C60.0836 59.0831 112.113 77.8488 161.306 112.105C179.768 124.962 194.915 140.259 215.845 149.269C226.995 154.069 234.708 156.088 246.167 158.905C265.961 163.771 289.352 165.633 304.58 180.329C313.006 188.461 316.308 197.531 322.051 207.244C324.913 212.085 330.747 218.483 334.963 222.179C354.654 239.44 380.755 246.707 406.103 250.635C418.135 252.499 428.553 253.398 439.497 259.181C452.564 266.086 460.158 277.258 470.285 287.482C485.129 302.469 503.246 313.747 522.752 321.543C549.381 332.187 576.696 335.584 605.141 337.047C618.469 337.732 632.053 337.437 645.32 338.373C672.263 340.272 699.722 346.128 723.9 358.398C751.075 372.189 769.913 390.36 787.036 415.225C793.947 425.26 800.544 435.697 807.506 445.541C835.721 485.437 869.008 511.055 915.535 526.295C951.078 537.937 976.69 543.252 1014.6 542.469C1017.91 542.4 1020.64 542.35 1024 542.009L1024 549.932C989.268 553.657 964.743 551.647 930.816 545.876C871.954 536.383 813.701 506.83 774.221 461.61C744.386 427.437 721.774 393.962 678.774 374.144C649.089 360.463 620.7 353.398 588.009 349.399C565.663 346.665 542.64 343.972 520.843 338.241C497.233 332.052 478.377 322.499 459.876 306.508C451.912 299.457 444.495 291.673 435.012 286.536C410.002 272.988 380.714 273.536 355.1 260.523C338.321 251.999 324.043 242.405 310.549 229.222C300.577 219.482 291.296 209.171 279.978 201.01C260.982 187.837 237.904 186.432 216.954 176.307C196.844 166.588 179.53 154.996 160.156 144.405C111.117 117.597 55.3024 107.356 0 116.478L0 60.0187Z" />

  <path fill="#25262B" transform="scale(0.984961 0.984961)" d="M889.805 61.2042C892.427 60.7773 896.53 60.8936 899.246 60.8792C918.596 60.7764 934.276 70.0424 943.059 87.4605C957.73 78.3006 979.201 81.7581 985.542 99.6561L889.941 99.6189L791.638 99.5325C801.925 84.0712 825.167 77.2355 842.077 84.3878C855.516 69.8718 870.325 63.309 889.805 61.2042Z" />
  <path fill="#1A1C1F" transform="scale(0.984961 0.984961)" d="M850.059 27.6742C851.276 27.8562 850.963 27.7973 852.112 28.2686C850.762 29.7887 844.005 30.394 841.021 32.3127C836.158 35.4389 834.106 40.9838 830.515 44.0276C828.495 43.7898 827.207 39.6172 825.326 37.9971C823.859 36.7333 821.924 35.6928 820.265 34.7297C817.61 33.5453 813.856 33.2347 812.598 32.4341C813.09 31.7544 812.882 31.8051 813.7 31.6416C820.623 30.2588 825.346 34.2885 830.578 37.5386C837.783 30.4961 839.801 28.4343 850.059 27.6742Z" />
  <path fill="#1A1C1F" transform="scale(0.984961 0.984961)" d="M937.439 166.616C938.994 166.501 941.441 166.13 942.532 167.236C941.519 167.998 938.604 168.914 937.351 169.251C930.396 171.122 927.89 174.948 923.794 180.498C921.186 174.929 920.99 174.977 915.808 171.383C911.968 169.434 909.776 169.159 905.515 168.147C914.675 167.843 917.172 167.969 924.125 174.099C928.818 169.268 930.734 167.966 937.439 166.616Z" />
  <path fill="#E6E7E2" transform="scale(0.984961 0.984961)" d="M351.272 340.732C360.073 340.507 372.348 340.824 381.202 341.327C503.334 348.268 618.648 402.951 700.077 494.482C752.435 553.816 794.297 630.234 801.296 710.091C808.091 787.628 775.804 866.618 717.439 917.832C668.204 961.034 605.675 983.647 541.282 991.308C524.506 993.304 505.024 995.05 488.206 994.127C456.486 994.026 420.566 991.137 389.429 984.264C222.575 947.435 43.6644 810.169 35.6316 627.105C32.6295 558.688 60.9134 486.853 108.875 438.192C173.354 372.37 260.433 342.722 351.272 340.732Z" />
  <path fill="#25262B" transform="scale(0.984961 0.984961)" d="M349.216 347.717C368.069 346.868 389.546 348.979 408.1 351.065C523.063 363.991 630.782 423.307 704.744 512.23C750.214 566.898 786.622 643.705 789.544 715.686C792.282 783.143 769.847 846.171 722.82 894.782C662.756 957.506 576.264 979.983 491.747 981.783C373.944 981.588 258.148 936.214 170.274 857.556C115.424 808.458 74.9737 750.541 57.5635 678.496C37.5097 595.512 58.7476 509.367 116.543 446.175C178.192 378.712 259.719 351.646 349.216 347.717Z" />
  <path fill="#E6E7E2" transform="scale(0.984961 0.984961)" d="M131.256 722.777C126.159 688.55 123.001 659.284 125.989 624.374C132.497 548.339 164.171 478.539 223.064 428.975C273.249 386.74 341.593 363.569 407.246 368.988C406.067 369.283 404.826 369.557 403.679 369.935C274.161 376.544 192.085 464.568 153.906 581.896C149.604 595.115 144.449 607.204 141.454 620.951C143.058 618.392 144.773 614.784 145.945 612.06C180.471 531.843 243.684 461.989 329.102 436.288C333.762 434.886 339.733 433.449 344.338 431.776L347.021 432.274C229.968 466.06 162.263 565.507 158.355 684.962C158.023 695.123 157.405 706.021 158.442 716.145C162.903 688.324 167.8 662.988 176.222 636.298C214.911 513.688 340.943 417.556 472.36 441.246C485.045 443.533 498.072 445.81 510.436 449.749C568.959 468.516 617.338 504.023 653.431 553.134C701.202 618.137 721.153 696.559 707.821 776.169C703.081 804.477 698.546 820.557 687.936 846.726C693.651 838.865 701.798 823.548 706.415 814.997C736.258 759.727 750.849 695.715 740.513 633.219C739.758 628.65 736.556 612.28 734.75 608.503L735.833 608.542C744.349 638.323 747.998 661.466 747.754 692.937C747.233 760.26 722.716 827.375 679.433 879.009C674.165 885.086 668.62 890.956 662.582 896.274C659.2 899.252 655.364 901.622 652.197 904.826C700.672 882.829 738.625 833.434 758.625 785.196C754.003 807.492 745.649 826.036 733.602 845.323C700.169 898.851 640.914 932.148 580.457 945.948C475.111 969.995 350.351 951.255 258.511 893.66C185.028 847.578 129.167 778.668 109.669 693.021C96.3115 634.346 101.895 572.055 122.323 515.611C124.045 510.853 131.858 490.954 134.343 487.046C134.412 488.611 132.966 492.044 132.425 493.715C109.577 564.327 107.098 652.173 131.256 722.777Z" />
  <path fill="#25262B" transform="scale(0.984961 0.984961)" d="M376.747 621.289L377.543 621.231C419.606 618.27 463.289 631.568 495.759 658.813C562.147 714.518 570.277 829.031 513.639 894.126C488.548 922.964 454.477 939.516 416.038 941.63C432.005 854.101 346.566 785.138 264.166 813.323C254.03 816.79 226.258 832.037 221.633 841.761C223.224 841.543 229.517 835.081 231.3 833.627C303.373 774.866 414.111 825.878 416.345 918.736C416.535 926.604 415.656 933.927 414.821 941.696C405.966 941.884 396.385 941.884 387.39 940.654C333.037 932.953 279.492 907.36 236.08 874.241C222.733 864.058 217.726 831.083 216.091 814.961C303.436 735.409 449.376 797.301 443.136 918.416C442.943 922.157 441.061 932.968 441.872 935.814L442.529 935.54C444.679 930.563 445.261 914.375 445.136 908.412C444.543 872.366 429.987 840.53 404.269 815.452C354.88 767.291 265.154 763.198 216.009 814.255C216.056 800.313 217.776 787.657 220.779 774.087C238.665 761.014 262.598 750.908 284.315 747.456C370.864 733.701 456.773 784.875 471.842 874.346C473.906 884.141 473.412 901.428 472.339 911.385C472.018 914.371 470.174 924.53 470.531 926.217L471.03 926.088C472.563 922.636 473.744 915.512 474.219 911.635C478.844 873.821 467.066 835.198 443.754 805.243C417.01 770.878 376.927 750.216 334.025 744.714C295.943 739.83 251.824 748.443 221.15 772.514C227.102 750.718 233.871 739.488 246.944 721.712C354.165 674.423 491.514 742.089 505.634 861.7C507.023 873.464 506.764 883.694 507.615 895.066L508.087 895.32C510.326 892.445 508.487 871.973 507.998 867.179C495.221 741.9 362.657 674.91 250.248 718.961L250.637 718.403C255.284 711.845 261.198 707.434 267.539 702.496C370.4 622.399 531.094 706.231 538.848 831.724C539.189 837.242 538.373 843.339 539.243 848.84L539.721 848.742C540.598 845.812 540.728 840.413 540.767 837.336C540.99 819.707 537.563 802.947 531.126 786.564C512.849 740.045 477.368 704.342 431.512 684.529C387.056 665.322 332.532 662.648 287.045 680.1C257.696 691.361 232.517 716.349 217.914 743.814C212.819 753.395 209.292 763.304 204.989 773.221C206.21 763.074 209.69 750.704 213.253 741.08C238.392 673.174 304.94 625.779 376.747 621.289Z" />
  <path fill="#25262B" transform="scale(0.984961 0.984961)" d="M416.452 452.712C420.78 452.22 426.755 452.315 431.167 452.368C533.824 453.42 621.617 520.38 664.772 610.872C709.484 704.626 697.432 806.999 641.618 892.972C640.179 895.188 636.566 901.115 634.501 902.113C634.487 901.441 638.863 894.221 639.744 892.642C648.636 876.722 654.75 861.126 660.143 843.699C693.426 736.157 659 605.033 553.536 551.842C543.315 546.688 529.847 540.05 518.926 536.89L518.257 536.7C522.596 539.556 533.052 544.418 538.333 547.356C556.424 557.421 569.111 566.314 584.136 580.42C630.3 623.762 653.211 681.314 655.493 744.031C656.087 760.381 655.375 779.117 653.05 795.339C646.774 839.122 626.361 893.504 595.543 925.866C605.124 903.91 612.362 883.247 617.7 859.804C619.989 849.754 622.039 843.418 622.594 832.851C622.08 833.18 620.518 839.753 620.235 840.838C610.596 877.792 586.662 912.004 556.395 935.147C553.298 937.515 550.362 939.966 547.391 942.402C549.753 939.211 552.112 936.538 554.484 933.08C582.531 892.189 600.51 839.333 602.368 789.768C602.965 773.853 601.086 755.713 598.376 740.222C571.672 587.897 387.216 520.911 262.812 607.205C253.702 613.524 245.603 620.208 236.939 627.048C233.811 629.517 222.053 640.244 220.087 641.137L233.861 624.291C268.51 582.653 322.607 548.095 377.184 542.732C381.827 542.275 386.391 542.101 391.019 541.679L391.157 541.324C378.218 538.192 348.814 542.068 336.573 545.374C272.61 562.645 220.631 614.236 192.599 673.048C189.766 678.992 187.108 685.739 183.775 691.288L183.379 691.938C202.336 620.285 244.714 563.888 307.268 523.635C360.829 489.169 425.583 480.386 487.401 495.194C493.285 496.603 498.955 498.961 504.932 500.258L505.576 500.392C407.665 453.347 304.925 490.76 233.03 564.813C229.987 567.947 226.996 571.115 224.011 574.304C229.421 564.624 237.839 553.774 245.271 545.276C278.948 506.769 324.469 472.988 374.182 459.024C387.473 455.291 402.847 453.697 416.452 452.712Z" />
  <path fill="#25262B" transform="scale(0.984961 0.984961)" d="M367.888 587.708C373.393 587.049 386.574 587.194 392.339 587.561C445.926 590.977 493.367 612.134 529.392 652.308C567.35 694.638 580.362 743.676 577.599 799.504C575.074 850.527 549.139 912.21 510.868 946.38C514.088 940.996 519.554 934.305 523.32 928.222C534.653 909.922 543.422 890.469 549.461 869.811C566.997 809.816 567.441 755.049 537.25 699.206C497.32 626.631 406.425 598.41 330.295 624.517C272.481 644.344 226.624 684.96 193.808 736.137C187.669 745.711 184.044 754.802 179.011 764.669C184.785 727.381 204.628 684.799 229.481 656.589C266.648 614.4 312.462 592.108 367.888 587.708Z" />
  <path fill="#828082" transform="scale(0.984961 0.984961)" d="M734.75 608.503C733.802 605.151 732.463 600.942 732.094 597.563C733.443 600.279 735.326 605.567 735.833 608.542L734.75 608.503Z" />
  <path fill="#EBE9E1" transform="scale(0.984961 0.984961)" d="M980.096 668.238L981.185 666.618C982.233 668.424 983.277 670.166 984.21 672.037L980.096 668.238Z" />
</svg>